<svg width="24" height="27" viewBox="0 0 24 27" fill="none" xmlns="http://www.w3.org/2000/svg">
<path d="M13.374 1.52398C13.0027 1.17291 12.511 0.977295 12 0.977295C11.489 0.977295 10.9973 1.17291 10.626 1.52398L0.938002 10.68C0.641364 10.9607 0.405164 11.299 0.243873 11.6742C0.0825821 12.0494 -0.000403144 12.4536 1.4725e-06 12.862V24.002C0.000531675 24.7973 0.316836 25.5598 0.879388 26.122C1.44194 26.6842 2.2047 27 3 27H6C6.79565 27 7.55871 26.6839 8.12132 26.1213C8.68393 25.5587 9 24.7956 9 24V19C9 18.7348 9.10536 18.4804 9.29289 18.2929C9.48043 18.1053 9.73478 18 10 18H14C14.2652 18 14.5196 18.1053 14.7071 18.2929C14.8946 18.4804 15 18.7348 15 19V24C15 24.7956 15.3161 25.5587 15.8787 26.1213C16.4413 26.6839 17.2044 27 18 27H21C21.7957 27 22.5587 26.6839 23.1213 26.1213C23.6839 25.5587 24 24.7956 24 24V12.86C23.9999 12.4518 23.9164 12.0479 23.7548 11.673C23.5932 11.2982 23.3568 10.9603 23.06 10.68L13.374 1.51998V1.52398Z" fill="white"/>
</svg>
