<svg width="414" height="896" viewBox="0 0 414 896" fill="none" xmlns="http://www.w3.org/2000/svg">
<g clip-path="url(#clip0_82:402)">
<path d="M0.599976 103.8C-19.8 103.8 -36.4 87.2001 -36.4 66.8001C-36.4 46.4001 -19.8 29.8 0.599976 29.8C21 29.8 37.6 46.4001 37.6 66.8001C37.6 87.2001 21 103.8 0.599976 103.8ZM0.599976 45.8C-11 45.8 -20.4 55.2001 -20.4 66.8001C-20.4 78.4001 -11 87.8001 0.599976 87.8001C12.2 87.8001 21.6 78.4001 21.6 66.8001C21.6 55.2001 12.2 45.8 0.599976 45.8Z" fill="#FFC844"/>
<path d="M0.599976 103.8C-19.8 103.8 -36.4 87.2001 -36.4 66.8001C-36.4 46.4001 -19.8 29.8 0.599976 29.8C21 29.8 37.6 46.4001 37.6 66.8001C37.6 87.2001 21 103.8 0.599976 103.8ZM0.599976 45.8C-11 45.8 -20.4 55.2001 -20.4 66.8001C-20.4 78.4001 -11 87.8001 0.599976 87.8001C12.2 87.8001 21.6 78.4001 21.6 66.8001C21.6 55.2001 12.2 45.8 0.599976 45.8Z" fill="url(#paint0_linear_82:402)"/>
<path d="M397.6 129.1H381.6C381.6 113.1 374.7 108 362.2 98.7001C358.8 96.2001 355.4 93.6001 351.7 90.5001C334.4 76.0001 334.4 52.4001 334.4 51.4001L350.4 51.5001L342.4 51.4001H350.4C350.4 51.6001 350.5 68.5001 361.9 78.1001C365.2 80.9001 368.5 83.3001 371.7 85.7001C385 95.7001 397.6 105.1 397.6 129.1Z" fill="#787DFF"/>
<path d="M397.6 129.1H381.6C381.6 113.1 374.7 108 362.2 98.7001C358.8 96.2001 355.4 93.6001 351.7 90.5001C334.4 76.0001 334.4 52.4001 334.4 51.4001L350.4 51.5001L342.4 51.4001H350.4C350.4 51.6001 350.5 68.5001 361.9 78.1001C365.2 80.9001 368.5 83.3001 371.7 85.7001C385 95.7001 397.6 105.1 397.6 129.1Z" fill="url(#paint1_linear_82:402)"/>
<path d="M347.6 150.2C336 150.2 326.6 140.8 326.6 129.2C326.6 117.6 336 108.2 347.6 108.2C359.2 108.2 368.6 117.6 368.6 129.2C368.6 140.8 359.2 150.2 347.6 150.2ZM347.6 120.2C342.6 120.2 338.6 124.2 338.6 129.2C338.6 134.2 342.6 138.2 347.6 138.2C352.6 138.2 356.6 134.2 356.6 129.2C356.6 124.2 352.5 120.2 347.6 120.2Z" fill="#FF6C6C"/>
<path d="M347.6 150.2C336 150.2 326.6 140.8 326.6 129.2C326.6 117.6 336 108.2 347.6 108.2C359.2 108.2 368.6 117.6 368.6 129.2C368.6 140.8 359.2 150.2 347.6 150.2ZM347.6 120.2C342.6 120.2 338.6 124.2 338.6 129.2C338.6 134.2 342.6 138.2 347.6 138.2C352.6 138.2 356.6 134.2 356.6 129.2C356.6 124.2 352.5 120.2 347.6 120.2Z" fill="url(#paint2_linear_82:402)"/>
<path d="M413.6 419.5C395.4 419.5 380.6 404.7 380.6 386.5C380.6 368.3 395.4 353.5 413.6 353.5C431.8 353.5 446.6 368.3 446.6 386.5C446.6 404.7 431.8 419.5 413.6 419.5ZM413.6 369.5C404.2 369.5 396.6 377.1 396.6 386.5C396.6 395.9 404.2 403.5 413.6 403.5C423 403.5 430.6 395.9 430.6 386.5C430.6 377.1 423 369.5 413.6 369.5Z" fill="#3CC4C4"/>
<path d="M413.6 419.5C395.4 419.5 380.6 404.7 380.6 386.5C380.6 368.3 395.4 353.5 413.6 353.5C431.8 353.5 446.6 368.3 446.6 386.5C446.6 404.7 431.8 419.5 413.6 419.5ZM413.6 369.5C404.2 369.5 396.6 377.1 396.6 386.5C396.6 395.9 404.2 403.5 413.6 403.5C423 403.5 430.6 395.9 430.6 386.5C430.6 377.1 423 369.5 413.6 369.5Z" fill="url(#paint3_linear_82:402)"/>
<path d="M347.7 483.8L347.5 467.8L347.6 475.8L347.5 467.8C351.4 467.7 362.2 466.2 366.2 460.1C377.9 442.2 391.2 439.6 398.1 439.6V455.6C391.8 455.6 385.2 460.3 379.6 468.9C370.2 483 350 483.7 347.7 483.8Z" fill="#FFC844"/>
<path d="M347.7 483.8L347.5 467.8L347.6 475.8L347.5 467.8C351.4 467.7 362.2 466.2 366.2 460.1C377.9 442.2 391.2 439.6 398.1 439.6V455.6C391.8 455.6 385.2 460.3 379.6 468.9C370.2 483 350 483.7 347.7 483.8Z" fill="url(#paint4_linear_82:402)"/>
<path d="M242.6 935.5C221.1 935.5 203.6 918 203.6 896.5C203.6 875 221.1 857.5 242.6 857.5C264.1 857.5 281.6 875 281.6 896.5C281.6 918 264.1 935.5 242.6 935.5ZM242.6 873.5C229.9 873.5 219.6 883.8 219.6 896.5C219.6 909.2 229.9 919.5 242.6 919.5C255.3 919.5 265.6 909.2 265.6 896.5C265.6 883.8 255.3 873.5 242.6 873.5Z" fill="#787DFF"/>
<path d="M242.6 935.5C221.1 935.5 203.6 918 203.6 896.5C203.6 875 221.1 857.5 242.6 857.5C264.1 857.5 281.6 875 281.6 896.5C281.6 918 264.1 935.5 242.6 935.5ZM242.6 873.5C229.9 873.5 219.6 883.8 219.6 896.5C219.6 909.2 229.9 919.5 242.6 919.5C255.3 919.5 265.6 909.2 265.6 896.5C265.6 883.8 255.3 873.5 242.6 873.5Z" fill="url(#paint5_linear_82:402)"/>
<path d="M301.6 863.5H285.6C285.6 857.2 283.5 855.2 277 849.8C275.7 848.8 274.4 847.7 273.1 846.5C263.8 838.4 263.5 824.8 263.5 823.2L279.5 823.1C279.5 825.1 280.3 831.5 283.6 834.4C284.8 835.4 286 836.4 287.2 837.4C293.9 843 301.6 849.4 301.6 863.5Z" fill="#FFC844"/>
<path d="M301.6 863.5H285.6C285.6 857.2 283.5 855.2 277 849.8C275.7 848.8 274.4 847.7 273.1 846.5C263.8 838.4 263.5 824.8 263.5 823.2L279.5 823.1C279.5 825.1 280.3 831.5 283.6 834.4C284.8 835.4 286 836.4 287.2 837.4C293.9 843 301.6 849.4 301.6 863.5Z" fill="url(#paint6_linear_82:402)"/>
<path d="M336.5 882.5H314.5C314.5 835.1 353.1 796.5 400.5 796.5V818.5C365.2 818.5 336.5 847.2 336.5 882.5Z" fill="#FF6C6C"/>
<path d="M336.5 882.5H314.5C314.5 835.1 353.1 796.5 400.5 796.5V818.5C365.2 818.5 336.5 847.2 336.5 882.5Z" fill="url(#paint7_linear_82:402)"/>
</g>
<defs>
<linearGradient id="paint0_linear_82:402" x1="-36.4143" y1="66.827" x2="37.5857" y2="66.827" gradientUnits="userSpaceOnUse">
<stop stop-opacity="0.2"/>
<stop offset="1" stop-color="white" stop-opacity="0"/>
</linearGradient>
<linearGradient id="paint1_linear_82:402" x1="366" y1="51.4389" x2="366" y2="129.079" gradientUnits="userSpaceOnUse">
<stop stop-opacity="0.2"/>
<stop offset="1" stop-color="white" stop-opacity="0"/>
</linearGradient>
<linearGradient id="paint2_linear_82:402" x1="368.586" y1="129.15" x2="326.586" y2="129.15" gradientUnits="userSpaceOnUse">
<stop stop-opacity="0.2"/>
<stop offset="1" stop-color="white" stop-opacity="0"/>
</linearGradient>
<linearGradient id="paint3_linear_82:402" x1="446.586" y1="386.489" x2="380.586" y2="386.489" gradientUnits="userSpaceOnUse">
<stop stop-opacity="0.2"/>
<stop offset="1" stop-color="white" stop-opacity="0"/>
</linearGradient>
<linearGradient id="paint4_linear_82:402" x1="398" y1="461.649" x2="347.438" y2="461.649" gradientUnits="userSpaceOnUse">
<stop stop-opacity="0.2"/>
<stop offset="1" stop-color="white" stop-opacity="0"/>
</linearGradient>
<linearGradient id="paint5_linear_82:402" x1="242.586" y1="935.489" x2="242.586" y2="857.489" gradientUnits="userSpaceOnUse">
<stop stop-opacity="0.2"/>
<stop offset="1" stop-color="white" stop-opacity="0"/>
</linearGradient>
<linearGradient id="paint6_linear_82:402" x1="282.5" y1="863.489" x2="282.5" y2="823.179" gradientUnits="userSpaceOnUse">
<stop stop-opacity="0.2"/>
<stop offset="1" stop-color="white" stop-opacity="0"/>
</linearGradient>
<linearGradient id="paint7_linear_82:402" x1="400.5" y1="839.5" x2="314.5" y2="839.5" gradientUnits="userSpaceOnUse">
<stop stop-opacity="0.2"/>
<stop offset="1" stop-color="white" stop-opacity="0"/>
</linearGradient>
<clipPath id="clip0_82:402">
<rect width="414" height="896" fill="white"/>
</clipPath>
</defs>
</svg>
