<svg width="414" height="896" viewBox="0 0 414 896" fill="none" xmlns="http://www.w3.org/2000/svg">
<g clip-path="url(#clip0_82:436)">
<path d="M403.1 93.5C357.6 93.5 320.6 56.5 320.6 11H342.6C342.6 44.4 369.7 71.5 403.1 71.5V93.5Z" fill="#3CC4C4"/>
<path d="M403.1 93.5C357.6 93.5 320.6 56.5 320.6 11H342.6C342.6 44.4 369.7 71.5 403.1 71.5V93.5Z" fill="url(#paint0_linear_82:436)"/>
<path d="M-17.4 165.5V154.5L-17.5 143.5C-16.6 143.5 3.4 143 10.4 126.3C21 101 39.6 86.5 61.6 86.5V108.5C48.8 108.5 37.8 117.8 30.8 134.7C18.1 165.1 -16 165.5 -17.4 165.5Z" fill="#FF6C6C"/>
<path d="M-17.4 165.5V154.5L-17.5 143.5C-16.6 143.5 3.4 143 10.4 126.3C21 101 39.6 86.5 61.6 86.5V108.5C48.8 108.5 37.8 117.8 30.8 134.7C18.1 165.1 -16 165.5 -17.4 165.5Z" fill="url(#paint1_linear_82:436)"/>
<path d="M0.600098 244.5C-14.7999 244.5 -27.3999 231.9 -27.3999 216.5C-27.3999 201.1 -14.7999 188.5 0.600098 188.5C16.0001 188.5 28.6001 201.1 28.6001 216.5C28.6001 231.9 16.0001 244.5 0.600098 244.5ZM0.600098 204.5C-5.9999 204.5 -11.3999 209.9 -11.3999 216.5C-11.3999 223.1 -5.9999 228.5 0.600098 228.5C7.2001 228.5 12.6001 223.1 12.6001 216.5C12.6001 209.9 7.2001 204.5 0.600098 204.5Z" fill="#FFC844"/>
<path d="M0.600098 244.5C-14.7999 244.5 -27.3999 231.9 -27.3999 216.5C-27.3999 201.1 -14.7999 188.5 0.600098 188.5C16.0001 188.5 28.6001 201.1 28.6001 216.5C28.6001 231.9 16.0001 244.5 0.600098 244.5ZM0.600098 204.5C-5.9999 204.5 -11.3999 209.9 -11.3999 216.5C-11.3999 223.1 -5.9999 228.5 0.600098 228.5C7.2001 228.5 12.6001 223.1 12.6001 216.5C12.6001 209.9 7.2001 204.5 0.600098 204.5Z" fill="url(#paint2_linear_82:436)"/>
<path d="M52.1001 197L40.0001 186.5L46.0001 191.7L39.9001 186.5C40.4001 185.9 51.3001 172.6 42.7001 152.4L57.4001 146.1C70.1001 175.8 52.8001 196.2 52.1001 197Z" fill="#3CC4C4"/>
<path d="M52.1001 197L40.0001 186.5L46.0001 191.7L39.9001 186.5C40.4001 185.9 51.3001 172.6 42.7001 152.4L57.4001 146.1C70.1001 175.8 52.8001 196.2 52.1001 197Z" fill="url(#paint3_linear_82:436)"/>
<path d="M397.5 311.8H381.5C381.5 304.4 378.7 302.3 371.8 297.2C369.9 295.8 367.8 294.2 365.7 292.4C354.8 283.3 354.6 269 354.6 267.4L370.6 267.5L362.6 267.4H370.6C370.6 267.5 370.7 275.6 376 280C377.8 281.5 379.6 282.9 381.4 284.2C388.9 290 397.5 296.4 397.5 311.8Z" fill="#787DFF"/>
<path d="M397.5 311.8H381.5C381.5 304.4 378.7 302.3 371.8 297.2C369.9 295.8 367.8 294.2 365.7 292.4C354.8 283.3 354.6 269 354.6 267.4L370.6 267.5L362.6 267.4H370.6C370.6 267.5 370.7 275.6 376 280C377.8 281.5 379.6 282.9 381.4 284.2C388.9 290 397.5 296.4 397.5 311.8Z" fill="url(#paint4_linear_82:436)"/>
<path d="M60.5 616.5C38.1 616.5 27.2 605.9 22.1 597C16.7 587.7 16.5 578.5 16.5 577.5H32.5H24.5L32.5 577.4C32.5 577.5 32.6 583.6 36.2 589.4C40.7 596.7 48.9 600.5 60.5 600.5V616.5Z" fill="#FF6C6C"/>
<path d="M60.5 616.5C38.1 616.5 27.2 605.9 22.1 597C16.7 587.7 16.5 578.5 16.5 577.5H32.5H24.5L32.5 577.4C32.5 577.5 32.6 583.6 36.2 589.4C40.7 596.7 48.9 600.5 60.5 600.5V616.5Z" fill="url(#paint5_linear_82:436)"/>
<path d="M413.6 693.5C397.6 693.5 384.6 680.5 384.6 664.5C384.6 648.5 397.6 635.5 413.6 635.5C429.6 635.5 442.6 648.5 442.6 664.5C442.6 680.5 429.6 693.5 413.6 693.5ZM413.6 651.5C406.4 651.5 400.6 657.3 400.6 664.5C400.6 671.7 406.4 677.5 413.6 677.5C420.8 677.5 426.6 671.7 426.6 664.5C426.6 657.3 420.8 651.5 413.6 651.5Z" fill="#3CC4C4"/>
<path d="M413.6 693.5C397.6 693.5 384.6 680.5 384.6 664.5C384.6 648.5 397.6 635.5 413.6 635.5C429.6 635.5 442.6 648.5 442.6 664.5C442.6 680.5 429.6 693.5 413.6 693.5ZM413.6 651.5C406.4 651.5 400.6 657.3 400.6 664.5C400.6 671.7 406.4 677.5 413.6 677.5C420.8 677.5 426.6 671.7 426.6 664.5C426.6 657.3 420.8 651.5 413.6 651.5Z" fill="url(#paint6_linear_82:436)"/>
<path d="M70.3 885H48.3C48.3 864.4 31.6 847.7 11 847.7V825.7C43.7 825.7 70.3 852.3 70.3 885Z" fill="#787DFF"/>
<path d="M70.3 885H48.3C48.3 864.4 31.6 847.7 11 847.7V825.7C43.7 825.7 70.3 852.3 70.3 885Z" fill="url(#paint7_linear_82:436)"/>
<path d="M93.6001 912.5H77.6001C77.6001 889.9 87.9001 883.6 97.9001 877.5C99.3001 876.6 100.8 875.8 102.2 874.8C108.8 870.5 109 858.6 109 858.5L125 858.3C125 860.4 124.8 879.1 111 888.2C109.3 889.3 107.8 890.2 106.3 891.2C97.5001 896.4 93.6001 898.8 93.6001 912.5Z" fill="#3CC4C4"/>
<path d="M93.6001 912.5H77.6001C77.6001 889.9 87.9001 883.6 97.9001 877.5C99.3001 876.6 100.8 875.8 102.2 874.8C108.8 870.5 109 858.6 109 858.5L125 858.3C125 860.4 124.8 879.1 111 888.2C109.3 889.3 107.8 890.2 106.3 891.2C97.5001 896.4 93.6001 898.8 93.6001 912.5Z" fill="url(#paint8_linear_82:436)"/>
<path d="M330.6 937.5C308 937.5 289.6 919.1 289.6 896.5C289.6 873.9 308 855.5 330.6 855.5C353.2 855.5 371.6 873.9 371.6 896.5C371.6 919.1 353.2 937.5 330.6 937.5ZM330.6 877.5C320.1 877.5 311.6 886 311.6 896.5C311.6 907 320.1 915.5 330.6 915.5C341.1 915.5 349.6 907 349.6 896.5C349.6 886 341.1 877.5 330.6 877.5Z" fill="#FF6C6C"/>
<path d="M330.6 937.5C308 937.5 289.6 919.1 289.6 896.5C289.6 873.9 308 855.5 330.6 855.5C353.2 855.5 371.6 873.9 371.6 896.5C371.6 919.1 353.2 937.5 330.6 937.5ZM330.6 877.5C320.1 877.5 311.6 886 311.6 896.5C311.6 907 320.1 915.5 330.6 915.5C341.1 915.5 349.6 907 349.6 896.5C349.6 886 341.1 877.5 330.6 877.5Z" fill="url(#paint9_linear_82:436)"/>
<path d="M401.6 875.5H385.6C385.6 867.6 381 864.2 373 858.9C370.1 857 367 855 364.3 852.5C352.9 842.4 352.6 827.2 352.6 825.5H368.6H360.6L368.6 825.4C368.6 825.5 368.8 835 374.9 840.5C376.8 842.2 379.2 843.8 381.8 845.5C390.1 851 401.6 858.6 401.6 875.5Z" fill="#FFC844"/>
<path d="M401.6 875.5H385.6C385.6 867.6 381 864.2 373 858.9C370.1 857 367 855 364.3 852.5C352.9 842.4 352.6 827.2 352.6 825.5H368.6H360.6L368.6 825.4C368.6 825.5 368.8 835 374.9 840.5C376.8 842.2 379.2 843.8 381.8 845.5C390.1 851 401.6 858.6 401.6 875.5Z" fill="url(#paint10_linear_82:436)"/>
</g>
<defs>
<linearGradient id="paint0_linear_82:436" x1="320.586" y1="52.2386" x2="403.086" y2="52.2386" gradientUnits="userSpaceOnUse">
<stop stop-opacity="0.2"/>
<stop offset="1" stop-color="white" stop-opacity="0"/>
</linearGradient>
<linearGradient id="paint1_linear_82:436" x1="-17.4851" y1="125.989" x2="61.5857" y2="125.989" gradientUnits="userSpaceOnUse">
<stop stop-opacity="0.2"/>
<stop offset="1" stop-color="white" stop-opacity="0"/>
</linearGradient>
<linearGradient id="paint2_linear_82:436" x1="-27.4142" y1="216.489" x2="28.5858" y2="216.489" gradientUnits="userSpaceOnUse">
<stop stop-opacity="0.2"/>
<stop offset="1" stop-color="white" stop-opacity="0"/>
</linearGradient>
<linearGradient id="paint3_linear_82:436" x1="51.0238" y1="197.026" x2="51.0238" y2="146.254" gradientUnits="userSpaceOnUse">
<stop stop-opacity="0.2"/>
<stop offset="1" stop-color="white" stop-opacity="0"/>
</linearGradient>
<linearGradient id="paint4_linear_82:436" x1="376" y1="311.771" x2="376" y2="267.423" gradientUnits="userSpaceOnUse">
<stop stop-opacity="0.2"/>
<stop offset="1" stop-color="white" stop-opacity="0"/>
</linearGradient>
<linearGradient id="paint5_linear_82:436" x1="38.5363" y1="616.488" x2="38.5363" y2="577.426" gradientUnits="userSpaceOnUse">
<stop stop-opacity="0.2"/>
<stop offset="1" stop-color="white" stop-opacity="0"/>
</linearGradient>
<linearGradient id="paint6_linear_82:436" x1="442.586" y1="664.489" x2="384.586" y2="664.489" gradientUnits="userSpaceOnUse">
<stop stop-opacity="0.2"/>
<stop offset="1" stop-color="white" stop-opacity="0"/>
</linearGradient>
<linearGradient id="paint7_linear_82:436" x1="11.0002" y1="855.333" x2="70.3347" y2="855.333" gradientUnits="userSpaceOnUse">
<stop stop-opacity="0.2"/>
<stop offset="1" stop-color="white" stop-opacity="0"/>
</linearGradient>
<linearGradient id="paint8_linear_82:436" x1="101.29" y1="912.489" x2="101.29" y2="858.323" gradientUnits="userSpaceOnUse">
<stop stop-opacity="0.2"/>
<stop offset="1" stop-color="white" stop-opacity="0"/>
</linearGradient>
<linearGradient id="paint9_linear_82:436" x1="330.586" y1="937.489" x2="330.586" y2="855.489" gradientUnits="userSpaceOnUse">
<stop stop-opacity="0.2"/>
<stop offset="1" stop-color="white" stop-opacity="0"/>
</linearGradient>
<linearGradient id="paint10_linear_82:436" x1="401.586" y1="850.462" x2="352.586" y2="850.462" gradientUnits="userSpaceOnUse">
<stop stop-opacity="0.2"/>
<stop offset="1" stop-color="white" stop-opacity="0"/>
</linearGradient>
<clipPath id="clip0_82:436">
<rect width="414" height="896" fill="white"/>
</clipPath>
</defs>
</svg>
